<svg width="205" height="60" viewBox="0 0 205 60" fill="none" xmlns="http://www.w3.org/2000/svg">
<rect width="205" height="60" fill="none"/>
<path d="M44.9568 17.9355C45.4545 19.2757 45.8789 20.4065 44.9673 22.8252C45.8789 20.4065 46.979 19.8935 48.4092 19.3438C47.7806 17.8674 47.7806 16.9041 48.3568 14.4592C46.9423 16.5638 46.2613 17.2496 44.8992 17.9355H44.9568ZM48.3987 14.4278C49.5198 11.4594 50.861 10.826 52.6212 10.1506C51.8878 8.31825 51.8721 7.11414 52.595 4.13003C50.8453 6.69532 50.0175 7.53296 48.3725 8.37061C49.0012 9.99354 49.5251 11.4071 48.3987 14.3912V14.4278ZM39.1574 42.0073C38.5183 40.6147 38.094 39.4839 39.1313 37.1175C38.094 39.4839 36.9991 39.9969 35.6998 40.599C36.1713 42.023 36.1818 42.981 35.7208 45.4835C37.0148 43.3266 37.6853 42.6407 39.1574 42.0073ZM35.7103 45.5149C34.432 48.4205 33.0804 49.054 31.4826 49.7921C32.0693 51.5721 32.0746 52.7239 31.5088 55.8127C33.1014 53.1951 33.9291 52.3574 35.7313 51.5721C34.9454 49.8968 34.4215 48.4833 35.6789 45.5516L35.7103 45.5149ZM44.1448 27.7778C43.9367 27.6019 43.7732 27.3793 43.6676 27.1281C43.5619 26.877 43.5172 26.6045 43.5371 26.3328C43.3595 26.5448 43.1336 26.711 42.8783 26.8176C42.6231 26.9242 42.3459 26.968 42.0702 26.9454C42.2719 27.1239 42.429 27.347 42.5291 27.597C42.6291 27.847 42.6693 28.1168 42.6465 28.3851C42.8193 28.1815 43.037 28.0208 43.2824 27.9154C43.5278 27.81 43.7943 27.7629 44.061 27.7778H44.1448ZM39.9537 32.1597C40.1628 32.3351 40.3273 32.5575 40.4339 32.8086C40.5404 33.0598 40.5859 33.3325 40.5667 33.6047C40.7406 33.3929 40.9624 33.2255 41.2138 33.1162C41.4652 33.007 41.739 32.9591 42.0126 32.9764C41.8015 32.7984 41.6361 32.5724 41.5304 32.3173C41.4247 32.0623 41.3816 31.7856 41.4049 31.5105C41.2257 31.7128 41.0016 31.8703 40.7505 31.9703C40.4994 32.0703 40.2283 32.1101 39.959 32.0864L39.9537 32.1597ZM26.5424 23.6419C28.6379 25.0659 29.3189 25.736 30.0157 27.0763C31.3568 26.5684 32.4884 26.1444 34.9088 27.0553C32.4989 26.1444 31.975 25.0502 31.4511 23.621C29.9843 24.2283 29.0413 24.2283 26.579 23.6419H26.5424ZM20.4863 23.6524C22.1103 23.0242 23.5248 22.5111 26.5109 23.6314C23.5248 22.5111 22.8961 21.1709 22.2151 19.4066C20.3815 20.15 19.1766 20.1552 16.1904 19.4328C18.7575 21.1813 19.5957 22.0137 20.4339 23.6524H20.4863ZM57.5772 36.3008C55.3769 35.0077 54.6958 34.3324 54.0672 32.8665C52.6527 33.4947 51.5001 33.9292 49.1427 32.8874C51.5525 33.9345 52.024 35.0182 52.6527 36.3218C54.0672 35.8506 55.0625 35.8401 57.5772 36.3008ZM63.6018 36.2799C61.873 37.0652 60.4585 37.5887 57.5772 36.3113C60.4585 37.5887 61.1396 38.9289 61.873 40.5362C63.6018 39.9498 64.8067 39.9446 67.8453 40.5047C65.1735 38.9185 64.3353 38.0861 63.5494 36.2851L63.6018 36.2799ZM38.9793 29.9347C39.1516 29.7302 39.369 29.5685 39.6145 29.4622C39.8599 29.3559 40.1267 29.308 40.3938 29.3222C40.1863 29.1516 40.0215 28.935 39.9123 28.6897C39.8032 28.4443 39.7528 28.1769 39.7652 27.9087C39.5891 28.1235 39.3639 28.2927 39.1086 28.4021C38.8533 28.5114 38.5753 28.5577 38.2983 28.5369C38.5132 28.7128 38.6826 28.9378 38.792 29.193C38.9014 29.4482 38.9477 29.7259 38.9269 30.0028L38.9793 29.9347ZM45.6326 31.453C45.4207 31.2792 45.2532 31.0575 45.1439 30.8063C45.0346 30.555 44.9866 30.2814 45.004 30.008C44.8258 30.219 44.5997 30.3842 44.3444 30.4899C44.0892 30.5956 43.8124 30.6386 43.5371 30.6153C43.7389 30.7949 43.896 31.019 43.996 31.2698C44.096 31.5206 44.1362 31.7912 44.1134 32.0602C44.2862 31.8567 44.5038 31.6959 44.7492 31.5906C44.9947 31.4852 45.2612 31.4381 45.5279 31.453H45.6326ZM35.5269 14.5273C36.0142 17.0245 36.0194 17.9826 35.5584 19.4118C36.8681 20.0034 37.9682 20.5112 39.0684 22.8566C38.0206 20.5007 38.4397 19.3647 39.0684 17.9669C37.6015 17.3491 36.9205 16.6738 35.6108 14.5273H35.5269ZM31.2311 10.2605C32.8551 10.9935 34.2068 11.606 35.5165 14.5011C34.2068 11.606 34.7044 10.2082 35.4641 8.48055C33.6567 7.72143 32.8185 6.89949 31.1997 4.25568C31.8021 7.32355 31.8126 8.49625 31.2521 10.2605H31.2311ZM48.5192 40.5309C47.0838 39.9969 45.9836 39.4943 45.0459 37.0861C45.9889 39.4943 45.5698 40.6304 45.0773 41.9759C46.4237 42.646 47.1048 43.3213 48.5507 45.4154C47.9377 42.9758 47.9325 42.0125 48.5192 40.5309ZM52.836 49.6822C51.0705 49.0225 49.7189 48.4048 48.5664 45.4416C49.7189 48.4048 49.195 49.8026 48.5664 51.4622C50.1904 52.2841 51.0286 53.1113 52.8098 55.6818C52.0764 52.682 52.0764 51.5041 52.8098 49.6822H52.836ZM40.5248 26.3486C40.5489 26.6202 40.5083 26.8937 40.4063 27.1467C40.3043 27.3996 40.1438 27.6249 39.938 27.804C40.2125 27.7858 40.4873 27.8333 40.7397 27.9425C40.9921 28.0518 41.2148 28.2197 41.3892 28.4322C41.3705 28.1682 41.4127 27.9035 41.5126 27.6584C41.6126 27.4133 41.7675 27.1944 41.9655 27.0187C41.6928 27.0457 41.4176 27.0076 41.1625 26.9075C40.9075 26.8074 40.6799 26.6481 40.4986 26.4428L40.5248 26.3486ZM44.171 32.144C43.8983 32.1668 43.6241 32.1246 43.3709 32.0208C43.1177 31.9171 42.8928 31.7548 42.7146 31.5472C42.7364 31.8183 42.6941 32.0908 42.5913 32.3427C42.4885 32.5946 42.328 32.8188 42.1226 32.9974C42.388 32.9806 42.6538 33.0253 42.8991 33.1279C43.1444 33.2305 43.3628 33.3883 43.5371 33.5889C43.5126 33.319 43.552 33.0471 43.6521 32.7951C43.7522 32.5432 43.9102 32.3184 44.1134 32.1388L44.171 32.144ZM31.493 36.4369C32.0798 35.1281 32.5775 34.0287 34.935 32.9659C32.5775 34.0287 31.4407 33.6204 30.0419 32.9974C29.4237 34.4632 28.7479 35.1438 26.6 36.4631C29.0989 35.9815 30.0576 35.9762 31.4878 36.4317L31.493 36.4369ZM22.3251 40.7456C23.0585 39.1383 23.6715 37.7876 26.5685 36.4736C23.6715 37.7824 22.2727 37.2798 20.5544 36.5155C19.7895 38.3216 18.9722 39.1593 16.3214 40.7822C19.3914 40.1854 20.5649 40.1802 22.3303 40.7456H22.3251ZM54.0724 26.9454C54.7377 25.6051 55.4135 24.9193 57.5091 23.4796C55.0625 24.0869 54.1038 24.0974 52.616 23.5058C52.0816 24.9403 51.5839 26.0449 49.1741 26.982C51.5839 26.0397 52.7208 26.4585 54.0672 26.9454H54.0724ZM61.7735 19.1972C61.1134 20.9615 60.5004 22.3122 57.53 23.4639C60.5004 22.3122 61.8992 22.8147 63.5547 23.422C64.3824 21.7729 65.2101 20.9353 67.7824 19.1553C64.7806 19.8882 63.6018 19.8882 61.7735 19.1553V19.1972ZM40.4724 30.6362C40.2005 30.6582 39.9274 30.6156 39.6751 30.5119C39.4229 30.4081 39.1989 30.2462 39.0212 30.0394C39.0447 30.3115 39.0033 30.5853 38.9004 30.8383C38.7975 31.0913 38.636 31.3163 38.4293 31.4948C38.7015 31.4714 38.9755 31.5128 39.2286 31.6156C39.4818 31.7185 39.707 31.8798 39.8856 32.0864C39.8598 31.8131 39.8996 31.5375 40.0017 31.2826C40.1037 31.0277 40.2651 30.8007 40.4724 30.6205V30.6362ZM43.6314 29.3065C43.9028 29.2839 44.1757 29.3257 44.4279 29.4285C44.6801 29.5313 44.9044 29.6922 45.0826 29.8981C45.0658 29.6328 45.1105 29.3673 45.2132 29.1221C45.3158 28.877 45.4737 28.6588 45.6745 28.4845C45.4044 28.5091 45.1323 28.4697 44.8802 28.3696C44.6281 28.2696 44.4031 28.1117 44.2234 27.9087C44.2486 28.1825 44.208 28.4583 44.105 28.7132C44.002 28.9682 43.8397 29.1949 43.6314 29.3745V29.3065ZM40.1371 17.747C41.1168 18.794 41.9393 19.684 42.0231 22.2598C41.9393 19.6788 42.7565 18.7836 43.8724 17.7313C42.746 16.5952 42.3741 15.7105 41.9759 13.2289C41.5044 15.7157 41.1377 16.6057 40.1423 17.7522L40.1371 17.747ZM44.2443 7.62196C42.8613 6.22938 42.4108 5.14044 41.9183 2.08304C41.2896 5.14568 40.8496 6.23985 39.6551 7.6429C40.8601 8.93078 41.8764 10.0145 41.9812 13.1923C41.8764 10.0145 42.8718 8.92031 44.2443 7.62196ZM44.0034 42.2062C42.877 41.1592 42.0545 40.2692 42.1069 37.6934C42.0545 40.2744 41.2373 41.1696 40.2733 42.2272C41.253 43.3632 41.6249 44.2427 42.1593 46.7295C42.526 44.2427 42.8927 43.3527 44.0034 42.2062ZM42.1593 46.7609C42.0912 49.9387 41.0906 51.0381 39.8909 52.3365C41.1063 53.7291 41.5673 54.818 42.2169 57.8702C42.6727 54.8075 43.118 53.7186 44.4853 52.3103C43.1023 51.0277 42.0912 49.9387 42.1593 46.7609ZM29.8323 31.9084C30.8801 30.9242 31.7602 30.1023 34.3482 30.0237C31.7602 30.1023 30.8696 29.2908 29.8114 28.1757C28.6588 29.3013 27.7682 29.673 25.306 30.0604C27.7682 30.5734 28.6588 30.9399 29.8114 31.9084H29.8323ZM19.7057 27.7987C18.3017 29.1861 17.2172 29.6415 14.1525 30.1284C17.2225 30.7567 18.3122 31.1964 19.7214 32.3901C21.0049 31.186 22.0946 30.1703 25.2746 30.0656C22.0946 30.1703 20.9944 29.1651 19.7004 27.804L19.7057 27.7987ZM54.3029 28.0448C53.2551 29.1651 52.375 29.9923 49.7975 29.94C52.375 29.9923 53.2708 30.7776 54.3239 31.7723C55.4607 30.7776 56.346 30.4111 58.8292 29.8876C56.3408 29.5211 55.4502 29.1547 54.3029 28.0029V28.0448Z" fill="white"/>
<path d="M58.8659 29.8935C62.0459 29.9563 63.1461 30.9563 64.44 32.1447C65.8021 30.9406 66.9023 30.4851 69.9408 29.8307C66.8499 29.3752 65.7497 28.9302 64.3353 27.5638C63.0256 28.9459 61.9778 29.9563 58.7821 29.8883L58.8659 29.8935ZM30.1572 18.1979C31.5559 20.3182 31.9384 21.1977 32.0431 22.7002C33.4838 22.7421 34.6887 22.784 36.58 24.5535C34.694 22.784 34.6416 21.5694 34.694 20.0512C33.1223 20.0407 32.2317 19.6742 30.1886 18.1979H30.1572ZM30.131 18.1665C27.8102 15.9991 27.7421 14.5175 27.7892 12.6328C25.8246 12.6223 24.7297 12.1826 22.2256 10.3607C23.9544 12.926 24.4259 14.0254 24.583 15.8577C26.3642 15.9101 27.8311 15.9624 30.1886 18.1089L30.131 18.1665ZM53.9886 41.7619C52.485 39.7411 52.1131 38.8563 52.0869 37.2595C50.5676 37.3119 49.3627 37.27 47.5815 35.4062C49.3627 37.27 49.4151 38.4794 49.5199 39.9086C51.0391 40.0133 51.9297 40.3798 54.0776 41.7619H53.9886ZM54.0095 41.7776C56.2098 44.0811 56.278 45.5627 56.3513 47.327C58.1954 47.4526 59.285 47.9029 61.9149 49.5991C60.0656 47.1123 59.6098 46.0234 59.5784 44.0602C57.6924 44.1282 56.2256 44.0759 54.0253 41.7828L54.0095 41.7776ZM34.783 39.9871C34.8354 38.5579 34.8721 37.3485 36.6376 35.4638C34.8721 37.3485 33.6619 37.4009 32.1322 37.3642C32.1217 38.961 31.7655 39.851 30.2777 41.8875C32.3994 40.5264 33.2847 40.1599 34.783 40.0028V39.9871ZM30.2567 41.9085C28.0826 44.2277 26.5895 44.2957 24.714 44.2486C24.6983 46.2119 24.2582 47.3008 22.4351 49.8085C25.0545 48.0809 26.1547 47.6254 27.9883 47.4736C28.0407 45.7145 28.0931 44.2277 30.2934 41.9085H30.2567ZM47.5029 24.4907C49.3679 22.7107 50.5729 22.6479 52.0083 22.5903C52.1131 21.093 52.4798 20.203 53.8629 18.067C51.8407 19.5852 50.9553 19.9517 49.3575 20.0041C49.4098 21.5223 49.3679 22.7788 47.5029 24.5588V24.4907ZM53.8786 18.0513C56.1837 15.8525 57.6662 15.7792 59.4317 15.7059C59.5575 13.8631 60.008 12.7741 61.7001 10.1565C59.2117 11.9888 58.1273 12.4496 56.1627 12.481C56.2151 14.3657 56.1627 15.8472 53.8576 18.0461L53.8786 18.0513ZM43.5581 29.972C43.21 29.8584 42.8936 29.6647 42.6342 29.4064C42.3749 29.1482 42.1799 28.8326 42.065 28.4852C41.9545 28.8376 41.7621 29.1589 41.5035 29.4228C41.2449 29.6867 40.9275 29.8857 40.5772 30.0034C40.9306 30.1187 41.2514 30.3166 41.5129 30.5807C41.7744 30.8447 41.969 31.1673 42.0807 31.5217C42.201 31.1753 42.4012 30.8621 42.6652 30.6074C42.9291 30.3528 43.2494 30.1638 43.6 30.0558L43.5581 29.972ZM46.4132 6.79545V6.82163C45.3131 9.38692 44.7106 10.2926 43.3747 11.3973C44.1972 12.6537 44.8835 13.7741 44.5535 16.3498L44.5011 16.6116L44.5377 16.486L44.5168 16.5907L44.5692 16.3289C45.2345 13.816 46.2875 13.0307 47.5239 12.1407C46.6961 10.6224 46.4761 9.52303 46.4237 6.74834L46.4394 6.64363V6.59128C46.8811 5.79696 47.522 5.13119 48.2992 4.65946C47.7334 3.65429 47.5763 2.92135 47.5343 1.12041L47.5605 1L47.5343 1.10471V1.04712V1.06806C46.8114 2.72241 46.3818 3.33493 45.4807 4.08358C46.0211 4.84767 46.3468 5.74253 46.4237 6.67504L46.4132 6.79545ZM46.4394 6.7431C46.4351 6.75739 46.4299 6.77138 46.4237 6.78498V6.77451L46.4394 6.73786V6.7431ZM43.6629 20.9569C43.1914 22.2238 42.8927 22.6845 42.2484 23.1976C42.7226 23.8851 42.9104 24.73 42.7723 25.5535C42.9657 24.7564 43.4568 24.0635 44.1448 23.6164C43.7257 22.9358 43.6209 22.3599 43.6629 20.9988V20.9569ZM37.4287 53.0491L37.4391 52.9758C38.5288 50.4106 39.1365 49.4682 40.4776 48.3688C39.6499 47.1123 38.9689 45.9606 39.2937 43.3953L39.3461 43.1335L39.2937 43.2382V43.0812L39.2413 43.3429C38.5602 45.8559 37.5125 46.5888 36.2552 47.4788C37.0934 48.997 37.3029 50.0441 37.3553 52.8711L37.3029 52.9758C36.8698 53.8138 36.2182 54.5192 35.4169 55.0176C35.9932 56.0123 36.1504 56.7452 36.2028 58.5252V58.5776V58.4205C36.8838 56.7452 37.3553 56.117 38.2459 55.3841C37.7094 54.6277 37.3839 53.7423 37.3029 52.8188V52.8711L37.4287 53.0491ZM41.604 36.6104C41.1303 35.9226 40.9425 35.078 41.0801 34.2545C40.8946 35.0676 40.4007 35.777 39.7023 36.2334C40.1214 36.9664 40.2262 37.4899 40.1843 38.8511C40.6034 37.5946 40.9177 37.1234 41.5988 36.6522L41.604 36.6104ZM13.0524 24.2918H13.0733C14.7236 25.009 15.3418 25.433 16.0857 26.3335C16.8422 25.7967 17.7283 25.4714 18.6527 25.3912L18.7575 25.4121C21.3245 26.5115 22.2151 27.1136 23.3153 28.4486C24.5726 27.6266 25.6727 26.946 28.2397 27.2706L28.5017 27.323L28.3445 27.2706H28.4493L28.1874 27.2183C25.6727 26.5377 24.8869 25.4906 24.0487 24.2342C22.5294 25.0718 21.4293 25.2812 18.6527 25.3336H18.7051H18.6003C17.809 24.9013 17.1431 24.2719 16.6672 23.5065C15.6351 24.0614 14.9017 24.2394 13.1048 24.2708L13 24.2603L13.0629 24.2865L13.0524 24.2918ZM32.9756 28.1659C34.2434 28.6266 34.7045 28.9302 35.2179 29.5794C35.906 29.106 36.7513 28.9183 37.5753 29.0559C36.7772 28.8607 36.0837 28.3682 35.637 27.679C34.9559 28.0978 34.3797 28.2025 33.0699 28.1606L32.9756 28.1659ZM70.7214 35.4952C69.0764 34.778 68.453 34.354 67.7091 33.4535C66.9427 33.994 66.0455 34.3194 65.1106 34.3958H65.0949L65.0163 34.3801C62.4493 33.2912 61.5063 32.6839 60.4061 31.3437C59.1488 32.1708 57.9963 32.8619 55.4293 32.5268L55.1149 32.4745L55.2197 32.5111L55.0625 32.4902L55.3245 32.5426C57.8391 33.2074 58.6249 34.2597 59.4632 35.4952C60.9824 34.6681 62.0302 34.4482 64.8068 34.3958H64.8591L64.9639 34.4273C65.7985 34.8515 66.504 35.4914 67.0071 36.2805C68.0024 35.7204 68.7359 35.5581 70.5171 35.5162H70.6219L70.7214 35.4952ZM65.0635 34.3958H65.053H65.1054H65.0635ZM46.2875 30.7469C47.0983 30.9322 47.8061 31.4237 48.2625 32.1185C48.996 31.6997 49.5199 31.595 50.882 31.6368C49.6246 31.1657 49.1531 30.8725 48.6293 30.2233C47.9552 30.6839 47.1312 30.871 46.3242 30.7469H46.2875ZM25.4684 5.53899L25.4841 5.55993C26.1495 7.22475 26.2857 7.96815 26.1652 9.13039C27.0931 9.28679 27.9617 9.69007 28.6798 10.2979L28.7479 10.3921L28.7636 10.4183C29.759 12.9993 30.021 14.0725 29.8114 15.8001C31.2783 16.1038 32.5356 16.4127 34.1596 18.4701L34.3168 18.6952C34.2644 18.6952 34.2644 18.6429 34.212 18.5905L34.2644 18.6952L34.1072 18.4858C32.7975 16.2347 33.0071 14.9782 33.269 13.46C31.5926 12.9888 30.702 12.4129 28.6589 10.4759L28.6065 10.4235C28.3144 9.54586 28.2601 8.60655 28.4493 7.70116C27.2968 7.38704 26.6681 6.96822 25.3584 5.7641L25.306 5.6594V5.70652L25.4684 5.53899ZM28.7322 10.345L28.7479 10.3816V10.3711C28.7409 10.3709 28.7339 10.3709 28.727 10.3711L28.7322 10.345ZM39.0108 23.852C38.2145 23.6426 37.7535 23.3285 36.8262 22.3547C37.392 23.5798 37.5072 24.119 37.4025 24.9409C38.224 25.0879 38.9565 25.5477 39.4456 26.2236C38.9891 25.5093 38.8329 24.644 39.0108 23.8153V23.852ZM58.3316 54.2061C57.6715 52.5413 57.53 51.7979 57.6505 50.6461C56.7221 50.4882 55.8534 50.0831 55.1359 49.4734L55.1254 49.4577H55.1778V49.4316C55.1778 49.442 55.2302 49.4473 55.2302 49.4577V49.3897C54.1824 46.8087 53.9729 45.7407 54.1824 44.013C52.7155 43.7094 51.4582 43.4005 49.8342 41.3431L49.677 41.1179L49.7294 41.2331L49.677 41.1284L49.8342 41.3535C51.1439 43.5523 50.9867 44.8612 50.6724 46.327C52.3488 46.7982 53.2918 47.4264 55.2826 49.3635L55.335 49.4159L55.3874 49.4682C55.6894 50.362 55.7437 51.3208 55.5445 52.2429C56.6971 52.557 57.3257 52.9758 58.6354 54.2323C58.6308 54.2244 58.6284 54.2153 58.6284 54.2061C58.6284 54.1969 58.6308 54.1879 58.6354 54.18L58.6878 54.2323L58.3316 54.2061ZM47.0157 37.4532C46.4552 36.2334 46.3347 35.689 46.4394 34.867C45.6185 34.7219 44.8859 34.2639 44.3963 33.5896C44.8396 34.2896 44.9953 35.1335 44.8311 35.9455C45.6327 36.1654 46.0884 36.469 47.0209 37.4637L47.0157 37.4532ZM27.8102 41.966C28.1088 40.5002 28.4179 39.2175 30.482 37.6312L30.702 37.4742L30.5448 37.5475L30.6496 37.4637L30.3877 37.6208C28.135 38.9296 26.8253 38.7306 25.3584 38.4584C24.8345 40.1232 24.2582 41.0394 22.3199 43.0393L22.2151 43.0916V43.144C21.3206 43.4454 20.3613 43.4996 19.4385 43.301C19.1242 44.4528 18.7051 45.081 17.4478 46.3899L17.343 46.4946H17.3954V46.5469C19.0718 45.9187 19.8052 45.7616 20.9578 45.8663C21.1082 44.9402 21.5065 44.0719 22.1103 43.3534L22.2151 43.301H22.2675C24.8345 42.254 25.8823 42.0446 27.6111 42.2016L27.8102 41.966ZM34.3744 35.0031C35.5951 34.4272 36.1347 34.3225 36.9572 34.4273C37.1042 33.6062 37.5643 32.8743 38.2407 32.3855C37.535 32.8253 36.6865 32.9753 35.8727 32.8043C35.6632 33.6158 35.3488 34.0608 34.3692 35.0031H34.3744ZM61.4906 16.7006L61.4696 16.7268H61.4591C61.4696 16.7268 61.4801 16.7111 61.4906 16.7006L61.4225 16.753C58.8397 17.7895 57.7658 17.9989 56.037 17.8314C55.7383 19.2973 55.424 20.5799 53.3652 22.1767L53.1451 22.3233L53.2604 22.2552L53.1556 22.3599L53.3809 22.2029C55.6336 20.8941 56.9276 21.0511 58.4102 21.3129C58.8974 19.6376 59.4998 18.7476 61.433 16.7058L61.5011 16.6535L61.5535 16.6011C62.4447 16.3017 63.4001 16.2474 64.3195 16.4441C64.6548 15.2923 65.053 14.6641 66.2946 13.3553L66.3155 13.3029C66.3121 13.3033 66.3086 13.3033 66.3051 13.3029L66.3575 13.2506L66.2422 13.3029C64.5658 13.9311 63.8323 14.0882 62.6693 13.9835C62.5169 14.909 62.1189 15.7768 61.5168 16.4964L61.4906 16.7006ZM49.478 24.8153C48.2521 25.3807 47.7125 25.4959 46.89 25.3912C46.7333 26.2123 46.2638 26.9406 45.5803 27.4225C46.2829 26.9849 47.1273 26.8349 47.9377 27.0036C48.1473 26.1974 48.4616 25.7367 49.4046 24.8153H49.478ZM37.2034 6.71692L37.2139 6.78498L37.2243 6.83734V6.86351C37.2034 9.69056 36.9886 10.7376 36.1766 12.2558C37.4182 13.0935 38.4817 13.8788 39.1627 16.3917L39.2151 16.6535L39.1994 16.5488L39.2518 16.7058L39.1994 16.4441C38.8327 13.8788 39.5137 12.727 40.3519 11.4706C39.0422 10.3711 38.4135 9.48115 37.3134 6.91586C37.3857 5.9743 37.7116 5.06981 38.2564 4.29823C37.3658 3.56529 36.8943 2.93705 36.1609 1.31412L36.1085 1.10471V1.15706C36.0561 2.93705 35.8989 3.66999 35.375 4.66469C36.1762 5.16309 36.8279 5.86853 37.261 6.70645L37.2034 6.71692ZM41.0382 25.5482C40.8998 24.7295 41.0838 23.889 41.5516 23.2028C40.8915 22.695 40.5877 22.2395 40.1057 20.9726C40.1581 22.3233 40.0533 22.8678 39.6499 23.5902C40.3479 24.0397 40.8452 24.7412 41.0382 25.5482ZM46.6333 53.0334V53.0125L46.6175 52.934C46.6437 50.1593 46.8585 49.1122 47.6653 47.594C46.429 46.7563 45.3602 45.971 44.6792 43.4581L44.6268 43.1963L44.6478 43.3534V43.2487L44.7001 43.5105C45.0669 46.0757 44.3858 47.2275 43.5476 48.484C44.9097 49.5834 45.5384 50.4734 46.6385 53.0387V53.091L46.6909 53.2481C46.6341 54.1846 46.3265 55.0887 45.8003 55.8657C46.7433 56.5987 47.1624 57.2269 47.8958 58.8498V58.9022L47.9482 59.0069V58.9022C48.0006 57.1222 48.1578 56.3892 48.6817 55.3422C47.8994 54.837 47.2664 54.1321 46.8481 53.3004L46.6333 53.0334ZM46.6175 52.9811L46.6333 53.0125V53.023C46.6333 53.0073 46.6228 52.9968 46.6175 52.9863V52.9811ZM42.8089 34.2545C42.9468 35.0732 42.7628 35.9135 42.2955 36.5999C42.9556 37.1234 43.2595 37.5946 43.7362 38.8511C43.6838 37.4899 43.7886 36.9664 44.1972 36.2334C43.5029 35.7897 43.0058 35.0962 42.8089 34.2964V34.2545ZM18.726 34.621L18.8465 34.5948H18.8727C21.7017 34.6157 22.7495 34.8304 24.2687 35.6418C25.1069 34.4011 25.8928 33.3383 28.4074 32.6577L28.6693 32.6054L28.5646 32.6211H28.7217L28.4598 32.6734C25.8928 33.0399 24.7402 32.3593 23.4829 31.574C22.3827 32.9352 21.4921 33.5634 18.9251 34.6628L18.8727 34.7152C17.9305 34.6429 17.0254 34.3173 16.2533 33.7728C15.4622 34.6053 14.8336 35.0241 13.2096 35.757L13.0733 35.778H13.1572C14.9488 35.8146 15.6823 35.9717 16.7196 36.5109C17.223 35.7221 17.9285 35.0822 18.7627 34.6576L18.726 34.621ZM18.7889 34.5895H18.8308H18.7941H18.7889ZM35.6055 32.1708C36.057 31.4727 36.7608 30.9756 37.5701 30.7835C36.7474 30.9241 35.9023 30.7401 35.2126 30.2704C34.7149 30.9301 34.2539 31.2337 32.9914 31.7154C34.343 31.663 34.8773 31.7677 35.6108 32.1708H35.6055ZM65.0739 25.1818L65.0477 25.1922L64.9744 25.2079C62.1978 25.1818 61.1501 24.9723 59.6308 24.1609C58.7926 25.3964 58.0068 26.4644 55.4921 27.145L55.2302 27.1973L55.3874 27.1764L55.2826 27.2287L55.5445 27.1764C58.1115 26.8623 59.2641 27.4905 60.5214 28.3282C61.6216 26.967 62.5122 26.3911 65.0792 25.2393H65.2363C66.1785 25.3116 67.0836 25.6372 67.8558 26.1817C68.5892 25.2917 69.2179 24.8729 70.8419 24.1399H70.9991L70.8943 24.1923C69.1131 24.1923 68.3796 24.0352 67.3319 23.4593C66.8331 24.26 66.1272 24.9112 65.2887 25.344L65.0739 25.1818ZM65.0216 25.2079H65.0111C65.0268 25.2079 65.0373 25.1975 65.053 25.1922L65.0268 25.2079H65.0216ZM48.2416 27.6266C47.7909 28.3256 47.0868 28.8228 46.277 29.014C47.0997 28.8728 47.9451 29.0568 48.6345 29.527C49.1322 28.8674 49.5932 28.5637 50.8558 28.0873C49.5042 28.1397 48.9698 28.035 48.2364 27.6266H48.2416ZM17.4006 13.6851L17.4163 13.7008C18.6632 14.9834 19.077 15.6169 19.4176 16.7372C20.3332 16.5266 21.2887 16.5663 22.1837 16.8524L22.2884 16.9048H22.3042C24.2582 18.8942 24.8712 19.7842 25.3689 21.4595C26.8881 21.1454 28.1454 20.9359 30.4505 22.2448L30.7125 22.4018L30.6077 22.2971L30.7125 22.3495L30.5029 22.1924C28.4598 20.6218 28.1454 19.3654 27.8311 17.8471C26.1023 18.0042 25.0545 17.8471 22.4351 16.8001V16.7477C21.8132 16.0345 21.3968 15.166 21.2302 14.2348C20.0777 14.3395 19.3442 14.1824 17.6678 13.5542L17.563 13.4495L17.6154 13.5018L17.4006 13.6851ZM38.2197 27.4539C37.5424 26.9726 37.077 26.2487 36.9205 25.433C36.098 25.5378 35.5584 25.433 34.3273 24.8781C35.3226 25.7943 35.637 26.2497 35.8465 27.0507C36.6716 26.8631 37.5374 27.008 38.2564 27.4539H38.2197ZM66.3836 46.081C65.142 44.7983 64.7282 44.1649 64.3929 43.0445C63.4739 43.2566 62.5146 43.2168 61.6163 42.9293V42.9189L61.543 42.877C59.5889 40.8876 58.9864 39.9819 58.4783 38.3223C57.0114 38.605 55.7017 38.8092 53.449 37.5161L53.2394 37.359L53.3442 37.4532L53.2394 37.3799L53.5014 37.537C55.5969 39.1076 55.9112 40.3798 56.2256 41.8456C57.9544 41.6676 59.0545 41.8718 61.6216 42.8927L61.6739 42.9084L61.7787 42.9765C62.3918 43.6752 62.8077 44.5245 62.9837 45.437C64.1362 45.28 64.8696 45.437 66.5461 46.0653H66.7032L66.3836 46.081ZM61.5796 42.9136H61.6111V42.9293L61.5587 42.9136H61.5796ZM49.5146 34.9351C48.5297 34.0189 48.2206 33.5634 47.9954 32.7624C47.1835 32.937 46.3356 32.7927 45.6274 32.3593C46.3136 32.8433 46.7835 33.5759 46.9371 34.4011C47.7491 34.2964 48.2887 34.4011 49.5199 34.977L49.5146 34.9351ZM33.5048 46.4527C33.2166 44.9711 33.0176 43.678 34.3063 41.4268L34.4635 41.1912L34.3744 41.2959L34.4425 41.1808L34.2854 41.4111C32.7137 43.479 31.4407 43.7984 29.9738 44.1125C30.1519 45.8402 29.9476 46.9134 28.926 49.5049L28.8841 49.5677L28.8736 49.5834C28.1641 50.2019 27.3008 50.6178 26.3747 50.7875C26.5005 51.9393 26.3747 52.7245 25.7199 54.3475L25.6465 54.5045L25.6989 54.4522C25.6933 54.4692 25.6933 54.4875 25.6989 54.5045H25.7094C26.9929 53.2481 27.6268 52.8816 28.7479 52.5151C28.5357 51.5967 28.5755 50.6381 28.8632 49.7404L28.8998 49.6881H28.9418C30.9325 47.751 31.8388 47.1752 33.4995 46.6516L33.5048 46.4527ZM28.8841 49.5729V49.5206L28.9156 49.4682L28.8841 49.5729ZM37.4444 34.8618C37.5596 35.6471 37.4444 36.2229 36.8943 37.4271C37.8373 36.4324 38.3088 36.1182 39.0946 35.9088C38.9115 35.0823 39.0621 34.2169 39.5137 33.5006C39.0322 34.155 38.3212 34.6037 37.5229 34.7571L37.4444 34.8618ZM49.5461 18.3183L49.3889 18.5277L49.4727 18.423L49.4046 18.5277L49.5094 18.2659C51.081 16.1718 52.3384 15.8577 53.8052 15.5436C53.5957 13.816 53.8052 12.7166 54.853 10.1513L54.9054 10.0466V9.99421C55.6046 9.38156 56.4545 8.96596 57.3676 8.79009C57.2105 7.58598 57.3676 6.85304 57.9963 5.17775H58.0487L57.9439 5.28246C56.6342 6.53892 56.0055 6.90539 54.9054 7.27186C55.1218 8.18925 55.0856 9.14808 54.8006 10.0466H54.7482C54.7497 10.0291 54.7497 10.0116 54.7482 9.99421L54.6958 10.0466C52.7051 11.9836 51.7621 12.6118 50.138 13.083C50.4 14.5489 50.6095 15.8577 49.2998 18.1089L49.5461 18.3183ZM46.4028 24.81C46.298 23.9724 46.4028 23.4489 46.9581 22.1924C46.036 23.1871 45.5803 23.5012 44.784 23.7106C44.9717 24.5352 44.8268 25.4004 44.3806 26.1189C44.8531 25.4452 45.5652 24.977 46.3713 24.81H46.4028Z" fill="white"/>
<path d="M83.244 16.935C81.344 16.935 80.394 17.6507 80.394 19.082C80.394 19.88 80.6093 20.431 81.04 20.735C81.4833 21.0263 82.37 21.324 83.7 21.628C85.0427 21.9193 85.9927 22.3057 86.55 22.787C87.1073 23.2557 87.386 24.0347 87.386 25.124C87.386 27.822 85.9863 29.171 83.187 29.171C82.2623 29.171 81.1033 29.0633 79.71 28.848L79.026 28.753L79.178 27.537C80.9007 27.765 82.2117 27.879 83.111 27.879C84.9857 27.879 85.923 26.9987 85.923 25.238C85.923 24.5287 85.714 24.022 85.296 23.718C84.8907 23.4013 84.1243 23.1353 82.997 22.92C81.515 22.6033 80.4637 22.198 79.843 21.704C79.2223 21.1973 78.912 20.355 78.912 19.177C78.912 16.821 80.3243 15.643 83.149 15.643C84.0737 15.643 85.182 15.738 86.474 15.928L87.12 16.023L86.987 17.258C85.2263 17.0427 83.9787 16.935 83.244 16.935ZM89.2479 24.231C89.2479 22.4957 89.5582 21.2417 90.1789 20.469C90.7995 19.6963 91.8445 19.31 93.3139 19.31C94.7959 19.31 95.8409 19.6963 96.4489 20.469C97.0695 21.2417 97.3799 22.4957 97.3799 24.231C97.3799 25.9663 97.0885 27.2267 96.5059 28.012C95.9232 28.7973 94.8592 29.19 93.3139 29.19C91.7685 29.19 90.7045 28.7973 90.1219 28.012C89.5392 27.2267 89.2479 25.9663 89.2479 24.231ZM90.7109 24.212C90.7109 25.5927 90.8755 26.5617 91.2049 27.119C91.5469 27.6763 92.2499 27.955 93.3139 27.955C94.3905 27.955 95.0935 27.6827 95.4229 27.138C95.7522 26.5807 95.9169 25.6053 95.9169 24.212C95.9169 22.8187 95.7332 21.8623 95.3659 21.343C94.9985 20.811 94.3145 20.545 93.3139 20.545C92.3259 20.545 91.6419 20.811 91.2619 21.343C90.8945 21.8623 90.7109 22.8187 90.7109 24.212ZM99.8179 29V15.358H101.243V29H99.8179ZM110.029 19.5H111.454V29H110.029V28.335C109.079 28.905 108.142 29.19 107.217 29.19C105.925 29.19 105.064 28.8543 104.633 28.183C104.215 27.5117 104.006 26.2703 104.006 24.459V19.5H105.431V24.44C105.431 25.8207 105.552 26.7453 105.792 27.214C106.033 27.6827 106.578 27.917 107.426 27.917C107.844 27.917 108.269 27.86 108.699 27.746C109.13 27.6193 109.459 27.499 109.687 27.385L110.029 27.214V19.5ZM119.116 20.735H116.095V25.276C116.095 26.3653 116.171 27.081 116.323 27.423C116.488 27.765 116.868 27.936 117.463 27.936L119.154 27.822L119.249 29C118.4 29.1393 117.754 29.209 117.311 29.209C116.323 29.209 115.639 28.9683 115.259 28.487C114.879 28.0057 114.689 27.0873 114.689 25.732V20.735H113.34V19.5H114.689V16.593H116.095V19.5H119.116V20.735ZM120.856 29V19.5H122.281V29H120.856ZM120.856 17.353V15.7H122.281V17.353H120.856ZM124.595 24.231C124.595 22.4957 124.905 21.2417 125.526 20.469C126.146 19.6963 127.191 19.31 128.661 19.31C130.143 19.31 131.188 19.6963 131.796 20.469C132.416 21.2417 132.727 22.4957 132.727 24.231C132.727 25.9663 132.435 27.2267 131.853 28.012C131.27 28.7973 130.206 29.19 128.661 29.19C127.115 29.19 126.051 28.7973 125.469 28.012C124.886 27.2267 124.595 25.9663 124.595 24.231ZM126.058 24.212C126.058 25.5927 126.222 26.5617 126.552 27.119C126.894 27.6763 127.597 27.955 128.661 27.955C129.737 27.955 130.44 27.6827 130.77 27.138C131.099 26.5807 131.264 25.6053 131.264 24.212C131.264 22.8187 131.08 21.8623 130.713 21.343C130.345 20.811 129.661 20.545 128.661 20.545C127.673 20.545 126.989 20.811 126.609 21.343C126.241 21.8623 126.058 22.8187 126.058 24.212ZM136.476 29H135.051V19.5H136.457V20.165C137.483 19.595 138.464 19.31 139.402 19.31C140.668 19.31 141.517 19.652 141.948 20.336C142.391 21.02 142.613 22.236 142.613 23.984V29H141.207V24.022C141.207 22.7047 141.074 21.8053 140.808 21.324C140.554 20.83 140.003 20.583 139.155 20.583C138.749 20.583 138.319 20.6463 137.863 20.773C137.419 20.887 137.077 21.001 136.837 21.115L136.476 21.286V29ZM148.239 20.583C146.858 20.583 146.168 21.0643 146.168 22.027C146.168 22.4703 146.326 22.787 146.643 22.977C146.959 23.1543 147.681 23.3443 148.809 23.547C149.936 23.737 150.734 24.0093 151.203 24.364C151.671 24.7187 151.906 25.3837 151.906 26.359C151.906 27.3343 151.589 28.05 150.956 28.506C150.335 28.962 149.423 29.19 148.22 29.19C147.434 29.19 146.51 29.1013 145.446 28.924L144.876 28.829L144.952 27.594C146.396 27.8093 147.485 27.917 148.22 27.917C148.954 27.917 149.512 27.803 149.892 27.575C150.284 27.3343 150.481 26.9417 150.481 26.397C150.481 25.8397 150.316 25.466 149.987 25.276C149.657 25.0733 148.935 24.8833 147.821 24.706C146.706 24.5287 145.914 24.269 145.446 23.927C144.977 23.585 144.743 22.9517 144.743 22.027C144.743 21.1023 145.066 20.4183 145.712 19.975C146.37 19.5317 147.187 19.31 148.163 19.31C148.935 19.31 149.904 19.3987 151.07 19.576L151.602 19.671L151.564 20.887C150.158 20.6843 149.049 20.583 148.239 20.583Z" fill="white"/>
<path opacity="0.65" d="M83.408 40.272H80.592V44H79.36V32.928H83.408C84.6133 32.928 85.504 33.2213 86.08 33.808C86.656 34.3947 86.944 35.2907 86.944 36.496C86.944 39.0133 85.7653 40.272 83.408 40.272ZM80.592 39.184H83.392C84.9173 39.184 85.68 38.288 85.68 36.496C85.68 35.6427 85.4987 35.0187 85.136 34.624C84.7733 34.2187 84.192 34.016 83.392 34.016H80.592V39.184ZM93.176 38.512C93.176 40.1333 93.3893 41.3013 93.816 42.016C94.2427 42.72 95.064 43.072 96.28 43.072C97.5067 43.072 98.328 42.7253 98.744 42.032C99.1707 41.3387 99.384 40.176 99.384 38.544C99.384 36.912 99.1653 35.7227 98.728 34.976C98.2907 34.2293 97.4693 33.856 96.264 33.856C95.0693 33.856 94.2533 34.2293 93.816 34.976C93.3893 35.712 93.176 36.8907 93.176 38.512ZM100.664 38.544C100.664 40.5173 100.349 41.9467 99.72 42.832C99.0907 43.7173 97.944 44.16 96.28 44.16C94.6267 44.16 93.4853 43.7067 92.856 42.8C92.2267 41.8933 91.912 40.4693 91.912 38.528C91.912 36.576 92.232 35.1307 92.872 34.192C93.512 33.2427 94.648 32.768 96.28 32.768C97.912 32.768 99.048 33.2373 99.688 34.176C100.339 35.1147 100.664 36.5707 100.664 38.544ZM107.67 39.76V44H106.438V32.928H110.534C111.707 32.928 112.587 33.2 113.174 33.744C113.771 34.288 114.07 35.136 114.07 36.288C114.07 37.9947 113.393 39.0667 112.038 39.504L114.166 44H112.806L110.806 39.76H107.67ZM110.55 38.672C112.054 38.672 112.806 37.8987 112.806 36.352C112.806 34.7947 112.049 34.016 110.534 34.016H107.67V38.672H110.55ZM118.661 34.032V32.928H126.661V34.032H123.285V44H122.069V34.032H118.661ZM130.775 44L133.815 32.928H136.503L139.543 44H138.327L137.527 41.152H132.791L131.991 44H130.775ZM134.743 33.984L133.063 40.048H137.255L135.575 33.984H134.743ZM150.894 44H144.798V32.928H146.03V42.896H150.894V44Z" fill="white"/>
</svg>
