<svg xmlns="http://www.w3.org/2000/svg" xmlns:xlink="http://www.w3.org/1999/xlink" version="1.1" id="Layer_1" x="0px" y="0px" viewBox="0 0 771.3 252" style="enable-background:new 0 0 771.3 252;" xml:space="preserve"> <style type="text/css"> .st0{fill:#00607f;} </style> <g> <g> <g> <path class="st0" d="M156,64.3c-5.7,8.4-8.3,11.1-13.7,13.8c2,5.3,3.7,9.8,0.1,19.5c3.6-9.6,8-11.7,13.7-13.9 C153.7,77.9,153.7,74.1,156,64.3z"/> <path class="st0" d="M155.9,40.3c2.5,6.6,4.6,12.1,0.1,23.9c4.5-11.8,9.8-14.3,16.8-17c-2.9-7.2-3-11.9-0.1-23.9 C165.8,33.6,162.5,36.9,155.9,40.3z"/> <path class="st0" d="M105.6,187.8c1.8-10,1.8-13.8-0.1-19.4c5.2-2.4,9.5-4.4,13.7-13.9c-4.1,9.4-2.4,13.9,0.1,19.5 C113.4,176.5,110.8,179.2,105.6,187.8z"/> <path class="st0" d="M88.8,204.9c6.4-2.9,11.7-5.5,16.8-17c-5.1,11.6-3,17.1,0.1,23.9c-7.2,3.1-10.5,6.4-16.8,17 C91.1,216.6,91.1,211.9,88.8,204.9z"/> <path class="st0" d="M133.4,119.7c1.9-1.9,3-2.4,5.7-2.4c-1.9-1.9-2.4-3.1-2.4-5.8c-1.9,1.9-3.1,2.4-5.7,2.4 C132.8,115.9,133.3,117.1,133.4,119.7z"/> <path class="st0" d="M128.2,132.4c-1.9,1.9-3.1,2.4-5.8,2.4c1.9,1.9,2.4,3.1,2.4,5.7c1.9-1.9,3.1-2.4,5.8-2.4 C128.8,136.2,128.3,135.1,128.2,132.4z"/> <path class="st0" d="M69.1,100.9c8.4,5.7,11.1,8.3,13.8,13.7c5.3-2,9.8-3.7,19.5-0.1c-9.6-3.6-11.7-8-13.8-13.7 C82.6,103.2,78.8,103.2,69.1,100.9z"/> <path class="st0" d="M45,100.9c6.6-2.5,12.1-4.6,23.9-0.1C57.1,96.4,54.6,91,51.9,84C44.7,87,40,87,28,84.1 C38.3,91.1,41.7,94.4,45,100.9z"/> <path class="st0" d="M192.5,151.2c-10-1.8-13.8-1.8-19.4,0.1c-2.4-5.2-4.4-9.5-13.9-13.7c9.4,4.1,13.9,2.4,19.5-0.1 C181.2,143.4,183.9,146.1,192.5,151.2z"/> <path class="st0" d="M209.7,168.1c-2.9-6.4-5.5-11.7-17-16.8c11.6,5.1,17.1,3,23.9-0.1c3.1,7.2,6.4,10.5,17,16.8 C221.4,165.7,216.7,165.8,209.7,168.1z"/> <path class="st0" d="M124.5,123.5c-1.9-1.9-2.4-3-2.4-5.7c-1.9,1.9-3.1,2.4-5.8,2.4c1.9,1.9,2.4,3.1,2.4,5.8 C120.7,124,121.8,123.5,124.5,123.5z"/> <path class="st0" d="M137.1,128.6c1.9,1.9,2.4,3.1,2.4,5.7c1.9-1.9,3-2.4,5.7-2.4c-1.9-1.9-2.4-3.1-2.4-5.8 C140.9,128.1,139.8,128.6,137.1,128.6z"/> <path class="st0" d="M105,64.6c1.9,9.9,2,13.7,0.1,19.4c5.2,2.3,9.6,4.3,13.8,13.7c-4.2-9.4-2.6-13.9-0.1-19.5 C112.9,75.8,110.2,73.1,105,64.6z"/> <path class="st0" d="M87.9,47.6c6.4,2.9,11.8,5.3,17,16.9c-5.2-11.5-3.2-17.1-0.2-23.9c-7.2-3-10.5-6.3-17-16.8 C90.1,35.9,90.2,40.6,87.9,47.6z"/> <path class="st0" d="M156.6,187.5c-5.7-8.3-8.5-11-13.8-13.7c2-5.4,3.6-9.9-0.1-19.5c3.7,9.6,8.1,11.6,13.8,13.7 C154.2,174,154.2,177.8,156.6,187.5z"/> <path class="st0" d="M156.9,211.6c2.4-6.6,4.4-12.2-0.2-23.9c4.6,11.8,10,14.2,17,16.8c-2.9,7.3-2.9,12,0.1,23.9 C166.8,218.1,163.4,214.9,156.9,211.6z"/> <path class="st0" d="M128.2,119.8c0-2.7,0.5-3.8,2.4-5.8c-2.7,0-3.8-0.5-5.8-2.4c0,2.7-0.5,3.8-2.4,5.8 C125.1,117.4,126.2,117.9,128.2,119.8z"/> <path class="st0" d="M133.4,132.3c0,2.7-0.5,3.8-2.4,5.8c2.7,0,3.8,0.5,5.8,2.4c0-2.7,0.5-3.8,2.4-5.8 C136.5,134.7,135.4,134.2,133.4,132.3z"/> <path class="st0" d="M69.3,151.9c9.9-1.9,13.7-1.9,19.4-0.1c2.3-5.2,4.3-9.6,13.7-13.8c-9.4,4.2-13.9,2.6-19.5,0.1 C80.6,144,77.9,146.7,69.3,151.9z"/> <path class="st0" d="M52.4,168.9c2.9-6.4,5.3-11.8,16.9-17c-11.5,5.2-17.1,3.2-23.9,0.2c-3,7.2-6.3,10.5-16.8,17 C40.7,166.7,45.4,166.7,52.4,168.9z"/> <path class="st0" d="M192.3,100.2c-8.3,5.7-11,8.5-13.7,13.8c-5.4-2-9.9-3.6-19.5,0.1c9.6-3.7,11.6-8.1,13.7-13.8 C178.7,102.7,182.5,102.6,192.3,100.2z"/> <path class="st0" d="M216.3,100c-6.6-2.4-12.2-4.4-23.9,0.2c11.8-4.6,14.2-10,16.8-17c7.3,2.9,12,2.9,23.9-0.1 C222.9,90.1,219.6,93.4,216.3,100z"/> <path class="st0" d="M124.5,128.7c-2.7,0-3.8-0.5-5.8-2.4c0,2.7-0.5,3.8-2.4,5.8c2.7,0,3.8,0.5,5.8,2.4 C122.2,131.8,122.7,130.6,124.5,128.7z"/> <path class="st0" d="M137.1,123.4c2.7,0,3.8,0.5,5.8,2.4c0-2.7,0.5-3.8,2.4-5.8c-2.7,0-3.8-0.5-5.8-2.4 C139.4,120.3,138.9,121.5,137.1,123.4z"/> <path class="st0" d="M130.5,59.4c-2,9.9-3.5,13.4-7.3,18c3.9,4.2,7.2,7.7,7.5,17.9c-0.3-10.3,2.9-13.8,7.3-18 C133.6,72.8,132.1,69.3,130.5,59.4z"/> <path class="st0" d="M121.3,37.2c4.8,5.1,8.8,9.4,9.3,22.1c-0.4-12.6,3.6-17,9-22.2c-5.5-5.6-7.3-9.9-9.3-22 C127.8,27.3,126,31.6,121.3,37.2z"/> <path class="st0" d="M131.2,192.7c-2.1-9.9-3.6-13.4-7.5-17.9c3.9-4.2,7.1-7.8,7.3-18c-0.2,10.3,3.1,13.8,7.5,18 C134.1,179.3,132.7,182.8,131.2,192.7z"/> <path class="st0" d="M122.2,215.1c4.8-5.2,8.7-9.5,9-22.2c-0.3,12.6,3.8,17,9.2,22.1c-5.4,5.6-7.2,10-9,22.1 C128.9,224.9,127,220.6,122.2,215.1z"/> <path class="st0" d="M64.2,126.4c9.9,2,13.4,3.5,18,7.3c4.2-3.9,7.7-7.2,18-7.5c-10.3,0.3-13.8-2.9-18-7.3 C77.6,123.4,74.1,124.9,64.2,126.4z"/> <path class="st0" d="M42,135.7c5.1-4.8,9.4-8.8,22.1-9.3c-12.6,0.4-17-3.6-22.2-9c-5.6,5.5-9.9,7.3-22,9.2 C32,129.2,36.4,130.9,42,135.7z"/> <path class="st0" d="M197.5,125.7c-9.9,2.1-13.4,3.6-17.9,7.5c-4.2-3.9-7.8-7.1-18-7.3c10.3,0.2,13.8-3.1,18-7.5 C184.1,122.8,187.6,124.3,197.5,125.7z"/> <path class="st0" d="M219.8,134.7c-5.2-4.8-9.5-8.7-22.2-9c12.6,0.3,17-3.8,22.1-9.2c5.6,5.4,10,7.2,22.1,9 C229.7,128.1,225.4,129.9,219.8,134.7z"/> <path class="st0" d="M83.5,79.2c5.6,8.4,7.1,12,7.6,17.9c5.7,0.2,10.5,0.3,18,7.4c-7.5-7-7.7-11.8-7.6-17.9 C95.1,86.5,91.6,85.1,83.5,79.2z"/> <path class="st0" d="M61.2,70c7,0.2,12.9,0.4,22.2,9.1c-9.2-8.6-9.5-14.6-9.3-22c-7.8,0-12.2-1.8-22.1-9 C58.8,58.4,60.6,62.7,61.2,70z"/> <path class="st0" d="M178.3,173c-8.5-5.5-12-6.9-18-7.4c-0.2-5.7-0.5-10.5-7.6-17.9c7.1,7.4,11.9,7.6,18,7.4 C170.8,161.4,172.3,164.9,178.3,173z"/> <path class="st0" d="M187.7,195.1c-0.3-7-0.6-12.9-9.3-22.1c8.7,9.1,14.6,9.3,22.1,9.1c0.1,7.8,1.9,12.1,9.3,22 C199.3,197.4,195,195.6,187.7,195.1z"/> <path class="st0" d="M84,173.5c8.4-5.6,12-7.1,17.9-7.6c0.2-5.7,0.3-10.5,7.4-18c-7,7.5-11.8,7.7-17.9,7.6 C91.3,161.8,89.9,165.4,84,173.5z"/> <path class="st0" d="M74.8,195.7c0.2-7,0.4-12.9,9.1-22.1c-8.6,9.2-14.5,9.5-22,9.3c-0.1,7.8-1.8,12.2-9.1,22.1 C63.2,198.1,67.5,196.3,74.8,195.7z"/> <path class="st0" d="M177.8,78.7c-5.5,8.5-6.9,12-7.4,18c-5.7,0.2-10.5,0.5-17.9,7.6c7.4-7.1,7.6-11.9,7.4-18 C166.2,86.1,169.7,84.6,177.8,78.7z"/> <path class="st0" d="M199.9,69.3c-7,0.3-12.9,0.6-22.1,9.3c9.1-8.7,9.3-14.6,9.1-22.1c7.8-0.1,12.1-1.9,22-9.3 C202.2,57.6,200.4,61.9,199.9,69.3z"/> <path class="st0" d="M130.8,120.1c-1.4,3.3-2.6,4.5-5.9,6c3.3,1.4,4.5,2.6,6,5.9c1.4-3.3,2.6-4.5,5.9-6 C133.5,124.6,132.3,123.5,130.8,120.1z"/> <path class="st0" d="M148.3,33.6c1.4-3.2,4.3-6.1,7.4-8.2c-2.2-4.1-2.9-7-3-14.1l0.1-0.5c0,0.1-0.1,0.2-0.1,0.2c0,0,0,0,0-0.1 l0,0.1c-2.8,6.5-4.5,9-8.1,12c2,3.1,3.7,6.9,3.8,10.3l-0.1,0.5C148.2,33.7,148.2,33.7,148.3,33.6 C148.3,33.6,148.3,33.6,148.3,33.6L148.3,33.6z"/> <path class="st0" d="M140.8,71.9c2.6-10,6.8-13.1,11.8-16.5c-3.3-6.1-4.2-10.3-4.4-21.4l0.1-0.3c0,0.1,0,0.1-0.1,0.2 c0-0.1,0-0.1,0-0.2l-0.1,0.3c-4.3,10.2-6.7,13.8-12.1,18.2C139.3,57.1,142.1,61.6,140.8,71.9l-0.3,1.1c0-0.2,0.1-0.4,0.1-0.5 c0,0.2,0,0.4-0.1,0.5L140.8,71.9z"/> <path class="st0" d="M137.2,90.2c-1.9,5-3.1,6.9-5.7,8.9c1.5,2.6,2.7,4.8,2.1,9.3c1.2-4.4,3.1-6,5.5-7.9 C137.5,97.7,137,95.6,137.2,90.2z"/> <path class="st0" d="M112.4,218c0.1,3.5,1.7,7.3,3.8,10.3c-3.6,3-5.3,5.4-8.1,12l-0.1,0.5c0-0.1,0-0.2,0-0.3c0,0,0,0,0,0.1l0-0.1 c-0.2-7.1-0.8-10-3-14.1c3-2.1,6-5,7.4-8.2l0.1-0.5C112.4,217.8,112.4,217.9,112.4,218C112.4,217.9,112.4,217.9,112.4,218 L112.4,218z"/> <path class="st0" d="M119.8,179.7c-1.3,10.3,1.4,14.7,4.7,19.7c-5.3,4.4-7.7,8-12.1,18.2l-0.1,0.3c0-0.1,0-0.1,0-0.2 c0,0.1,0,0.1-0.1,0.2l0.1-0.3c-0.2-11.1-1.1-15.3-4.4-21.4C112.9,192.8,117.1,189.7,119.8,179.7l0.1-1.1c0,0.2,0,0.4-0.1,0.5 c0-0.2,0.1-0.3,0.1-0.5L119.8,179.7z"/> <path class="st0" d="M123.4,161.3c0.2-5.4-0.3-7.5-1.9-10.4c2.4-1.9,4.3-3.5,5.5-7.9c-0.6,4.5,0.6,6.7,2.1,9.3 C126.4,154.5,125.2,156.3,123.4,161.3z"/> <path class="st0" d="M38.1,107.8c-3.2-1.4-6.1-4.3-8.2-7.4c-4.1,2.2-7,2.9-14.1,3l-0.5-0.1c0.1,0,0.2,0.1,0.2,0.1c0,0,0,0-0.1,0 l0.1,0c6.5,2.8,9,4.5,12,8.1c3.1-2,6.9-3.7,10.3-3.8l0.5,0.1C38.3,107.9,38.2,107.8,38.1,107.8C38.1,107.8,38.1,107.8,38.1,107.8 L38.1,107.8z"/> <path class="st0" d="M76.4,115.2c-10-2.6-13.1-6.8-16.5-11.8c-6.1,3.3-10.3,4.2-21.4,4.4l-0.3-0.1c0.1,0,0.1,0,0.1,0.1 c-0.1,0-0.1,0-0.2,0l0.3,0.1c10.2,4.3,13.8,6.8,18.2,12.1C61.6,116.7,66.1,114,76.4,115.2l1.1,0.3c-0.2,0-0.4-0.1-0.5-0.1 c0.2,0,0.4,0,0.5,0.1L76.4,115.2z"/> <path class="st0" d="M94.7,118.8c5,1.9,6.9,3.1,8.9,5.7c2.6-1.5,4.8-2.7,9.3-2.1c-4.4-1.2-6-3.1-7.9-5.5 C102.2,118.6,100.1,119,94.7,118.8z"/> <path class="st0" d="M222.5,143.7c3.5-0.1,7.3-1.7,10.3-3.8c3,3.6,5.4,5.3,12,8.1l0.5,0.1c-0.1,0-0.2,0-0.3,0c0,0,0,0,0.1,0 l-0.1,0c-7.1,0.2-10,0.8-14.1,3c-2.1-3-5-6-8.2-7.4l-0.5-0.1C222.3,143.7,222.4,143.7,222.5,143.7 C222.5,143.7,222.5,143.7,222.5,143.7L222.5,143.7z"/> <path class="st0" d="M184.2,136.2c10.2,1.3,14.7-1.4,19.7-4.7c4.4,5.3,8,7.8,18.2,12.1l0.3,0.1c-0.1,0-0.1,0-0.2,0 c0.1,0,0.1,0,0.2,0.1l-0.3-0.1c-11.1,0.2-15.3,1.1-21.4,4.4C197.3,143.1,194.2,138.9,184.2,136.2l-1.1-0.1c0.2,0,0.4,0,0.5,0.1 c-0.2,0-0.3-0.1-0.5-0.1L184.2,136.2z"/> <path class="st0" d="M165.9,132.7c-5.4-0.2-7.5,0.3-10.4,1.9c-1.9-2.4-3.5-4.3-7.9-5.5c4.5,0.6,6.7-0.6,9.3-2.1 C159,129.6,160.8,130.8,165.9,132.7z"/> <path class="st0" d="M77.8,47.9c-1.3-3.2-1.2-7.4-0.6-11c-4.5-1.3-7-2.9-12.1-7.9l-0.3-0.4c0,0.1,0.1,0.2,0.1,0.2c0,0,0,0,0,0 l0.1,0.1c2.6,6.6,3.2,9.6,2.7,14.2c3.6,0.7,7.5,2.2,10,4.6l0.3,0.4C77.9,48.1,77.8,48,77.8,47.9C77.8,47.9,77.8,47.9,77.8,47.9 L77.8,47.9z"/> <path class="st0" d="M99.6,80.2c-5.2-8.9-4.4-14.1-3.4-20c-6.6-2-10.3-4.3-18.2-12l-0.2-0.3c0,0.1,0,0.1,0.1,0.2 c0,0-0.1-0.1-0.1-0.1l0.2,0.3c4.1,10.3,5,14.5,4.3,21.4C88.1,70.9,93.2,72.1,99.6,80.2l0.6,0.9c-0.1-0.2-0.2-0.3-0.3-0.5 c0.1,0.1,0.2,0.3,0.3,0.4L99.6,80.2z"/> <path class="st0" d="M110,95.7c2.2,4.9,2.7,7,2.3,10.3c2.9,0.8,5.3,1.5,8.1,5.1c-2.3-3.9-2.1-6.4-1.7-9.4 C115.5,100.9,113.7,99.7,110,95.7z"/> <path class="st0" d="M182.8,203.7c2.5,2.4,6.4,3.9,10,4.6c-0.5,4.6,0.1,7.6,2.7,14.2l0.3,0.4c-0.1-0.1-0.1-0.1-0.2-0.2 c0,0,0,0,0,0.1l-0.1-0.1c-5.2-4.9-7.7-6.5-12.1-7.9c0.7-3.6,0.7-7.8-0.6-11l-0.3-0.4C182.7,203.5,182.7,203.6,182.8,203.7 C182.8,203.6,182.8,203.6,182.8,203.7L182.8,203.7z"/> <path class="st0" d="M161,171.3c6.3,8.2,11.4,9.4,17.3,10.6c-0.7,6.9,0.2,11.1,4.3,21.4l0.2,0.3c0,0-0.1-0.1-0.1-0.1 c0,0.1,0,0.1,0.1,0.2l-0.2-0.3c-8-7.7-11.6-10.1-18.2-12C165.4,185.5,166.2,180.3,161,171.3l-0.7-0.9c0.1,0.2,0.2,0.3,0.3,0.4 c-0.1-0.2-0.2-0.3-0.3-0.5L161,171.3z"/> <path class="st0" d="M150.6,155.8c-3.7-3.9-5.5-5.1-8.7-6c0.4-3,0.6-5.5-1.7-9.4c2.8,3.6,5.2,4.3,8.1,5.1 C147.8,148.8,148.3,151,150.6,155.8z"/> <path class="st0" d="M52.4,178.3c-3.2,1.3-7.4,1.2-11,0.6c-1.3,4.5-2.9,7-7.9,12.2l-0.4,0.3c0.1,0,0.2-0.1,0.3-0.1c0,0,0,0,0,0 l0.1-0.1c6.6-2.6,9.6-3.2,14.2-2.7c0.7-3.6,2.2-7.5,4.6-10l0.4-0.3C52.6,178.2,52.5,178.2,52.4,178.3 C52.4,178.3,52.4,178.2,52.4,178.3L52.4,178.3z"/> <path class="st0" d="M84.7,156.5c-8.9,5.2-14.1,4.4-20,3.4c-2,6.6-4.4,10.3-12,18.2l-0.3,0.2c0.1,0,0.1,0,0.2-0.1 c0,0-0.1,0.1-0.1,0.1l0.3-0.2c10.3-4.1,14.5-5,21.4-4.3C75.4,167.9,76.6,162.9,84.7,156.5l0.9-0.6c-0.2,0.1-0.3,0.2-0.5,0.3 c0.1-0.1,0.3-0.2,0.4-0.3L84.7,156.5z"/> <path class="st0" d="M100.2,146.1c4.9-2.2,7-2.7,10.3-2.3c0.8-2.9,1.5-5.3,5.1-8.1c-3.9,2.3-6.4,2.1-9.4,1.7 C105.4,140.6,104.1,142.4,100.2,146.1z"/> <path class="st0" d="M208.2,73.2c2.4-2.5,3.9-6.4,4.6-10c4.6,0.4,7.6-0.1,14.2-2.7l0.4-0.3c-0.1,0.1-0.1,0.1-0.2,0.2c0,0,0,0,0,0 l-0.1,0.1c-4.9,5.2-6.5,7.7-7.9,12.1c-3.6-0.7-7.8-0.7-11,0.6l-0.4,0.3C208,73.4,208.1,73.3,208.2,73.2 C208.1,73.3,208.1,73.3,208.2,73.2L208.2,73.2z"/> <path class="st0" d="M175.8,95.1c8.2-6.3,9.4-11.4,10.6-17.3c6.9,0.7,11.1-0.2,21.4-4.3l0.3-0.2c0,0-0.1,0.1-0.1,0.1 c0.1,0,0.1,0,0.2-0.1l-0.3,0.2c-7.7,8-10.1,11.6-12,18.2C190,90.7,184.8,89.9,175.8,95.1l-0.9,0.7c0.2-0.1,0.3-0.2,0.4-0.3 c-0.2,0.1-0.3,0.2-0.5,0.3L175.8,95.1z"/> <path class="st0" d="M160.3,105.5c-3.9,3.7-5.1,5.5-6,8.7c-3-0.4-5.5-0.6-9.4,1.7c3.6-2.8,4.3-5.2,5.1-8.1 C153.3,108.2,155.5,107.8,160.3,105.5z"/> <path class="st0" d="M111.6,33.7c0-3.5,1.7-7.3,3.7-10.4c-3.6-2.9-5.3-5.4-8.2-11.9l-0.1-0.5c0,0.1,0,0.2,0,0.3c0,0,0,0,0-0.1 l0,0.1c-0.1,7.1-0.7,10.1-2.9,14.2c3.1,2.1,6,4.9,7.4,8.1l0.1,0.5C111.6,33.9,111.6,33.8,111.6,33.7 C111.6,33.8,111.6,33.8,111.6,33.7L111.6,33.7z"/> <path class="st0" d="M119.4,71.9c-1.4-10.2,1.3-14.7,4.5-19.7c-5.4-4.4-7.8-7.9-12.2-18.1l-0.1-0.3c0,0.1,0,0.1,0,0.2 c0-0.1,0-0.1-0.1-0.1l0.1,0.3c-0.1,11.1-1,15.3-4.2,21.4C112.4,58.9,116.6,62,119.4,71.9l0.1,1.1c0-0.2,0-0.4-0.1-0.5 c0,0.2,0.1,0.3,0.1,0.5L119.4,71.9z"/> <path class="st0" d="M123.1,90.2c0.2,5.4-0.2,7.5-1.8,10.4c2.4,1.8,4.3,3.4,5.5,7.8c-0.6-4.5,0.5-6.7,2-9.3 C126.2,97.1,125,95.3,123.1,90.2z"/> <path class="st0" d="M149,217.8c1.4,3.2,4.4,6,7.5,8.1c-2.2,4.1-2.8,7-2.9,14.2l0.1,0.5c0-0.1-0.1-0.2-0.1-0.3c0,0,0,0,0,0.1 l0-0.1c-2.9-6.5-4.6-9-8.2-11.9c2-3.1,3.6-6.9,3.7-10.4l-0.1-0.5C148.9,217.6,149,217.7,149,217.8C149,217.8,149,217.8,149,217.8 L149,217.8z"/> <path class="st0" d="M141.3,179.6c2.7,10,6.9,13.1,11.9,16.4c-3.2,6.1-4.1,10.4-4.2,21.4l0.1,0.3c0-0.1,0-0.1-0.1-0.2 c0,0.1,0,0.1,0,0.2l-0.1-0.3c-4.4-10.2-6.9-13.7-12.2-18.1C139.9,194.3,142.6,189.8,141.3,179.6l-0.3-1.1c0,0.2,0.1,0.3,0.1,0.5 c0-0.2,0-0.3-0.1-0.5L141.3,179.6z"/> <path class="st0" d="M137.5,161.3c-1.9-5-3.1-6.9-5.7-8.8c1.5-2.6,2.6-4.9,2-9.3c1.2,4.4,3.1,6,5.5,7.8 C137.7,153.8,137.3,155.9,137.5,161.3z"/> <path class="st0" d="M38.2,144.4c-3.5,0-7.3-1.7-10.4-3.7c-2.9,3.6-5.4,5.3-11.9,8.2l-0.5,0.1c0.1,0,0.2,0,0.3,0c0,0,0,0-0.1,0 l0.1,0c7.1,0.1,10.1,0.7,14.2,2.9c2.1-3,4.9-6,8.1-7.4l0.5-0.1C38.4,144.5,38.3,144.4,38.2,144.4 C38.3,144.4,38.3,144.4,38.2,144.4L38.2,144.4z"/> <path class="st0" d="M76.5,136.7c-10.2,1.4-14.7-1.3-19.7-4.5c-4.4,5.4-7.9,7.8-18.1,12.2l-0.3,0.1c0.1,0,0.1,0,0.2,0 c-0.1,0-0.1,0-0.2,0.1l0.3-0.1c11.1,0.1,15.3,1,21.4,4.2C63.4,143.7,66.5,139.5,76.5,136.7l1.1-0.1c-0.2,0-0.4,0-0.5,0.1 c0.2,0,0.3-0.1,0.5-0.1L76.5,136.7z"/> <path class="st0" d="M94.8,133c5.4-0.2,7.5,0.2,10.4,1.8c1.9-2.4,3.4-4.3,7.8-5.5c-4.5,0.6-6.7-0.5-9.3-2 C101.6,129.9,99.8,131.1,94.8,133z"/> <path class="st0" d="M222.3,107c3.2-1.4,6-4.4,8.1-7.4c4.1,2.2,7,2.8,14.2,2.9l0.5-0.1c-0.1,0-0.2,0.1-0.2,0.1c0,0,0,0,0.1,0 l-0.1,0c-6.5,2.9-9,4.6-11.9,8.2c-3.1-2-6.9-3.6-10.4-3.7l-0.5,0.1C222.1,107.1,222.2,107.1,222.3,107 C222.3,107,222.3,107,222.3,107L222.3,107z"/> <path class="st0" d="M184.1,114.8c10-2.7,13-6.9,16.4-11.9c6.1,3.2,10.4,4.1,21.4,4.2l0.3-0.1c-0.1,0-0.1,0-0.2,0.1 c0.1,0,0.1,0,0.2,0l-0.3,0.1c-10.2,4.4-13.8,6.9-18.1,12.2C198.8,116.2,194.4,113.5,184.1,114.8l-1.1,0.3c0.2,0,0.3-0.1,0.5-0.1 c-0.2,0-0.3,0-0.5,0.1L184.1,114.8z"/> <path class="st0" d="M165.8,118.5c-5,1.9-6.9,3.1-8.9,5.7c-2.6-1.5-4.8-2.6-9.3-2c4.4-1.2,6-3.1,7.8-5.5 C158.3,118.4,160.4,118.8,165.8,118.5z"/> <path class="st0" d="M52,73.9c-2.4-2.5-4-6.3-4.7-9.9c-4.6,0.5-7.6,0-14.2-2.6l-0.4-0.3c0.1,0.1,0.1,0.1,0.2,0.2c0,0,0,0-0.1,0 l0.1,0.1c5,5.1,6.6,7.6,8,12.1c3.6-0.7,7.8-0.8,11,0.5l0.4,0.3C52.1,74.1,52.1,74,52,73.9C52,73.9,52,73.9,52,73.9L52,73.9z"/> <path class="st0" d="M84.5,95.4c-8.2-6.3-9.5-11.3-10.8-17.2c-6.9,0.7-11.1-0.1-21.5-4.1L52,73.9c0,0,0.1,0.1,0.1,0.1 c-0.1,0-0.1,0-0.2-0.1l0.3,0.2c7.8,7.9,10.2,11.5,12.2,18.1C70.3,91.2,75.5,90.4,84.5,95.4l0.9,0.7c-0.2-0.1-0.3-0.2-0.4-0.3 c0.2,0.1,0.3,0.2,0.5,0.3L84.5,95.4z"/> <path class="st0" d="M100.1,105.8c3.9,3.6,5.2,5.5,6.1,8.6c3-0.4,5.5-0.6,9.4,1.6c-3.6-2.8-4.4-5.1-5.2-8 C107.1,108.4,105,108,100.1,105.8z"/> <path class="st0" d="M208.6,177.6c3.2,1.3,7.4,1.2,11,0.5c1.4,4.5,3,7,8,12.1l0.4,0.3c-0.1,0-0.2-0.1-0.3-0.1c0,0,0,0,0,0 l-0.1-0.1c-6.7-2.6-9.6-3.1-14.2-2.6c-0.8-3.6-2.3-7.4-4.7-9.9l-0.4-0.3C208.4,177.6,208.5,177.6,208.6,177.6 C208.6,177.6,208.6,177.6,208.6,177.6L208.6,177.6z"/> <path class="st0" d="M176.1,156.1c9,5.1,14.1,4.3,20,3.2c2,6.6,4.4,10.2,12.2,18.1l0.3,0.2c-0.1,0-0.1,0-0.2-0.1 c0,0,0.1,0.1,0.1,0.1l-0.3-0.2c-10.3-4.1-14.6-4.9-21.5-4.2C185.6,167.5,184.3,162.4,176.1,156.1l-0.9-0.5 c0.2,0.1,0.3,0.2,0.5,0.3c-0.1-0.1-0.3-0.2-0.4-0.3L176.1,156.1z"/> <path class="st0" d="M160.5,145.8c-4.9-2.2-7-2.6-10.3-2.2c-0.8-2.9-1.6-5.3-5.2-8c3.9,2.2,6.4,2,9.4,1.6 C155.3,140.3,156.6,142.2,160.5,145.8z"/> <path class="st0" d="M78.4,204.1c-2.5,2.4-6.3,4-9.9,4.7c0.5,4.6,0,7.6-2.6,14.2l-0.3,0.4c0.1-0.1,0.1-0.1,0.2-0.2c0,0,0,0,0,0.1 l0.1-0.1c5.1-5,7.6-6.6,12.1-8c-0.7-3.6-0.8-7.8,0.5-11l0.3-0.4C78.6,204,78.5,204,78.4,204.1C78.4,204.1,78.4,204,78.4,204.1 L78.4,204.1z"/> <path class="st0" d="M99.9,171.6c-6.3,8.2-11.3,9.5-17.2,10.7c0.7,6.9-0.1,11.1-4.2,21.5l-0.2,0.3c0,0,0.1-0.1,0.1-0.1 c0,0.1,0,0.1-0.1,0.2l0.2-0.3c7.9-7.8,11.5-10.2,18.1-12.2C95.7,185.7,94.9,180.6,99.9,171.6l0.7-0.9c-0.1,0.2-0.2,0.3-0.3,0.4 c0.1-0.2,0.2-0.3,0.3-0.5L99.9,171.6z"/> <path class="st0" d="M110.3,156c3.6-3.9,5.5-5.2,8.6-6.1c-0.4-3-0.6-5.5,1.6-9.4c-2.8,3.6-5.1,4.4-8.1,5.2 C112.9,149,112.5,151.1,110.3,156z"/> <path class="st0" d="M182.1,47.4c1.3-3.2,1.2-7.4,0.5-11c4.5-1.4,7-3,12.1-8l0.3-0.4c0,0.1-0.1,0.2-0.1,0.3c0,0,0,0,0,0l-0.1,0.1 c-2.6,6.7-3.1,9.6-2.6,14.2c-3.6,0.8-7.5,2.3-9.9,4.7l-0.3,0.4C182.1,47.6,182.1,47.6,182.1,47.4 C182.1,47.5,182.1,47.5,182.1,47.4L182.1,47.4z"/> <path class="st0" d="M160.6,80c5.1-9,4.3-14.1,3.2-20c6.6-2,10.2-4.4,18.1-12.2l0.2-0.3c0,0.1,0,0.1-0.1,0.2c0,0,0.1-0.1,0.1-0.1 l-0.2,0.3c-4.1,10.3-4.9,14.6-4.2,21.5C172,70.5,166.9,71.8,160.6,80l-0.5,0.9c0.1-0.2,0.2-0.3,0.3-0.5c-0.1,0.1-0.2,0.3-0.3,0.4 L160.6,80z"/> <path class="st0" d="M150.3,95.6c-2.2,4.9-2.6,7.1-2.2,10.3c-2.9,0.8-5.3,1.6-8,5.2c2.2-3.9,2-6.4,1.6-9.4 C144.8,100.8,146.7,99.5,150.3,95.6z"/> </g> <g> <path class="st0" d="M300.1,97.9c0,0-6.3-0.8-8.9-0.8c-4,0-6.1,1.3-6.1,4.3c0,3.3,1.8,4,7.1,5.3c6.3,1.7,8.8,3.3,8.8,8.8 c0,6.6-4,9.4-10.3,9.4c-3.4,0-9.4-1-9.4-1l0.4-3.9c0,0,5.8,0.8,8.9,0.8c4,0,6-1.4,6-5.1c0-3-1.6-3.9-6.4-5 c-6.6-1.5-9.6-3.4-9.6-9.1c0-5.9,4-8.6,10.5-8.6c3.4,0,9.2,1,9.2,1L300.1,97.9z"/> <path class="st0" d="M306.7,124.5v-22.3h4.2v1.3c0,0,2.3-1.3,4.8-1.6c0.9-0.1,1.7-0.2,2.4-0.1c2.1,0.1,3.5,0.7,4.6,1.9 c1.6-0.6,5.1-2,8-2c6.1,0,7.6,3.1,7.6,11.1v11.7h-4.2v-10.2c0-6.4-0.3-8.7-4.2-8.7c-2.6,0-5.5,1.3-5.6,1.4 c0.3,0.7,0.4,3.5,0.4,5.9v11.6h-4.2V113c0-5.5-0.5-7.4-4.2-7.4c-2.5,0-5.3,1.3-5.3,1.3v17.5H306.7z"/> <path class="st0" d="M363.2,113.1c0,7.5-2.1,11.8-9.7,11.8c-7.6,0-9.8-4.2-9.8-11.8c0-7.5,2.5-11.4,9.8-11.4 C360.5,101.7,363.2,105.8,363.2,113.1z M358.9,113.1c0-5.3-1.5-7.7-5.5-7.7c-4.3,0-5.5,2.1-5.5,7.7c0,5.5,0.9,8,5.5,8 C358.1,121.1,358.9,118.5,358.9,113.1z"/> <path class="st0" d="M369.1,124.5V92.7h4.2V111l3-0.3l5.9-8.5h4.8l-6.9,10.4l7.1,11.9h-4.8l-6-9.7l-3.1,0.3v9.4H369.1z"/> <path class="st0" d="M408.1,120.7l0.1,3.4c0,0-5.1,0.9-8.9,0.9c-6.7,0-9.1-3.8-9.1-11.5c0-8.3,3.6-11.8,9.5-11.8 c6.2,0,9.3,3.2,9.3,10.3l-0.3,3.1h-14.2c0,4,1.4,6,5.4,6C403.3,121.1,408.1,120.7,408.1,120.7z M404.8,111.8 c0-4.6-1.5-6.4-5.1-6.4c-3.5,0-5.2,1.8-5.3,6.4H404.8z"/> <path class="st0" d="M432.5,93.5h8.9l7.9,31h-4.4l-2-6.9h-12.1l-1.9,7h-4.3L432.5,93.5z M431.7,113.4H442l-4-15.9h-2.2 L431.7,113.4z"/> <path class="st0" d="M454.1,92.7h4.2v31.8h-4.2V92.7z"/> <path class="st0" d="M481.8,119.7c0.1,1.3,0.9,1.8,2.2,2l-0.2,3.3c-2.6,0-4.2-0.4-5.7-1.7c0,0-3.8,1.7-7.6,1.7 c-4.2,0-6.5-2.5-6.5-7s2.5-6.3,7.2-6.7l6.3-0.6v-1.7c0-2.5-1.2-3.6-3.5-3.6c-3.1,0-8.4,0.5-8.4,0.5l-0.2-3.2c0,0,5.4-1.1,9-1.1 c4.9,0,7.3,2.3,7.3,7.4V119.7z M471.8,114.4c-2.3,0.2-3.4,1.3-3.4,3.5c0,2.2,0.9,3.6,3,3.6c2.6,0,6.1-1.1,6.1-1.1v-6.6 L471.8,114.4z"/> <path class="st0" d="M489.4,102.2h4.2v2.6c0,0,3.2-2.4,7.3-3.2v4.5c-4.1,0.8-7.3,2.7-7.3,2.7v15.6h-4.2V102.2z"/> <path class="st0" d="M505.6,124.5v-22.3h4.2v1.3c0,0,2.3-1.3,4.8-1.6c0.8-0.1,1.7-0.2,2.4-0.1c2.1,0.1,3.5,0.7,4.6,1.9 c1.6-0.6,5.1-2,8-2c6.1,0,7.6,3.1,7.6,11.1v11.7h-4.2v-10.2c0-6.4-0.3-8.7-4.2-8.7c-2.6,0-5.5,1.3-5.6,1.4 c0.3,0.7,0.4,3.5,0.4,5.9v11.6h-4.2V113c0-5.5-0.5-7.4-4.2-7.4c-2.5,0-5.3,1.3-5.3,1.3v17.5H505.6z"/> <path class="st0" d="M573.9,97.9c0,0-6.3-0.8-8.9-0.8c-4,0-6.1,1.3-6.1,4.3c0,3.3,1.8,4,7.1,5.3c6.3,1.7,8.8,3.3,8.8,8.8 c0,6.6-4,9.4-10.3,9.4c-3.4,0-9.4-1-9.4-1l0.4-3.9c0,0,5.8,0.8,8.9,0.8c4,0,6-1.4,6-5.1c0-3-1.6-3.9-6.4-5 c-6.6-1.5-9.6-3.4-9.6-9.1c0-5.9,4-8.6,10.5-8.6c3.4,0,9.2,1,9.2,1L573.9,97.9z"/> <path class="st0" d="M598.4,113.1c0,7.5-2.1,11.8-9.8,11.8c-7.6,0-9.8-4.2-9.8-11.8c0-7.5,2.5-11.4,9.8-11.4 C595.8,101.7,598.4,105.8,598.4,113.1z M594.1,113.1c0-5.3-1.5-7.7-5.5-7.7c-4.3,0-5.5,2.1-5.5,7.7c0,5.5,0.9,8,5.5,8 C593.3,121.1,594.1,118.5,594.1,113.1z"/> <path class="st0" d="M604.2,92.7h4.3v31.8h-4.3V92.7z"/> <path class="st0" d="M633.5,102.2v22.3h-4.2v-1.3c0,0-3.5,1.8-6.3,1.8c-6.3,0-7.6-3.1-7.6-11.2v-11.6h4.2v11.6 c0,5.5,0.4,7.4,4.2,7.4c2.5,0,5.5-1.3,5.5-1.3v-17.6H633.5z"/> <path class="st0" d="M645.5,106v9.7c0,4,0.2,5.3,2.8,5.3c1.2,0,3.8-0.2,3.8-0.2l0.2,3.7c0,0-3,0.5-4.6,0.5 c-4.9,0-6.4-1.8-6.4-8.3V106h-3v-3.8h3v-6.7h4.2v6.7h6.6v3.8H645.5z"/> <path class="st0" d="M657,93.2h4.2v4.7H657V93.2z M657,102.2h4.2v22.3H657V102.2z"/> <path class="st0" d="M686.5,113.1c0,7.5-2.2,11.8-9.8,11.8c-7.6,0-9.8-4.2-9.8-11.8c0-7.5,2.5-11.4,9.8-11.4 C683.8,101.7,686.5,105.8,686.5,113.1z M682.2,113.1c0-5.3-1.5-7.7-5.5-7.7c-4.3,0-5.5,2.1-5.5,7.7c0,5.5,0.9,8,5.5,8 C681.3,121.1,682.2,118.5,682.2,113.1z"/> <path class="st0" d="M692.3,124.5v-22.3h4.2v1.4c0,0,3.4-1.9,6.4-1.9c6.2,0,7.7,3.3,7.7,11.1v11.7h-4.2v-11.8 c0-5.1-0.6-7.2-4.3-7.2c-2.9,0-5.6,1.3-5.6,1.3v17.7H692.3z"/> <path class="st0" d="M733,106.2c0,0-5.1-0.7-7.9-0.7c-2.7,0-4.3,0.7-4.3,2.9c0,1.7,1,2.2,5.1,2.9c5.9,0.9,7.9,2.3,7.9,6.7 c0,5.2-3.4,7.1-8.8,7.1c-3,0-8.1-0.9-8.1-0.9l0.2-3.6c0,0,5.3,0.7,7.6,0.7c3.4,0,4.9-0.7,4.9-3.1c0-1.9-0.9-2.3-4.9-3 c-5.6-0.9-8.1-2.1-8.1-6.6c0-5,4-6.7,8.3-6.7c3.3,0,8.3,0.9,8.3,0.9L733,106.2z"/> </g> <path class="st0" d="M283.8,157.9v6.2h-2.7v-19.4h7c4.3,0,6.4,2.1,6.4,6.4c0,4.3-2.1,6.8-6.4,6.8H283.8z M288.1,155.3 c2.5,0,3.6-1.6,3.6-4.2c0-2.6-1.1-3.8-3.6-3.8h-4.3v8H288.1z"/> <path class="st0" d="M307.2,157.1h-4.9v7h-2.7v-19.4h7.2c4.3,0,6.3,1.8,6.3,6.1c0,3-1.1,4.7-3.3,5.6l3.4,7.7h-3L307.2,157.1z M306.8,147.3h-4.5v7.3h4.6c2.6,0,3.5-1.5,3.5-3.7C310.4,148.4,309.2,147.3,306.8,147.3z"/> <path class="st0" d="M316.7,154.5c0-6.4,1.7-10.1,7.7-10.1c6,0,7.7,3.7,7.7,10.1c0,6.6-1.7,9.9-7.7,9.9 C318.4,164.4,316.7,161,316.7,154.5z M329.3,154.5c0-4.8-0.9-7.5-4.9-7.5c-4,0-4.9,2.6-4.9,7.5c0,4.9,0.9,7.3,4.9,7.3 C328.4,161.8,329.3,159.5,329.3,154.5z"/> <path class="st0" d="M334,144.7h14v2.6h-5.6v16.8h-2.7v-16.8H334V144.7z"/> <path class="st0" d="M351.8,144.7h11.9v2.6h-9.2v5.8h7.6v2.5h-7.6v5.8h9.2v2.6h-11.9V144.7z"/> <path class="st0" d="M379.8,163.7c0,0-3.2,0.7-5.4,0.7c-5.8,0-7.1-3.5-7.1-10c0-6.8,1.5-10,7.1-10c2.5,0,5.4,0.7,5.4,0.7l-0.1,2.4 c0,0-3.2-0.5-5-0.5c-3.9,0-4.7,2.1-4.7,7.4c0,5.1,0.7,7.3,4.7,7.3c1.6,0,4.9-0.5,4.9-0.5L379.8,163.7z"/> <path class="st0" d="M382.4,144.7h14v2.6h-5.6v16.8h-2.7v-16.8h-5.6V144.7z"/> <path class="st0" d="M400.2,144.7h2.7v19.4h-2.7V144.7z"/> <path class="st0" d="M408.2,144.7h4.6l6.9,16.1h0.6v-16.1h2.7v19.4h-4.5l-7-16.1h-0.6v16.1h-2.7V144.7z"/> <path class="st0" d="M435.9,154.1h5.4v9.6c0,0-4,0.7-6.3,0.7c-5.9,0-7.6-3.6-7.6-10c0-6.6,1.8-10,7.5-10c2.9,0,6.4,0.8,6.4,0.8 l-0.1,2.4c0,0-3.4-0.5-5.9-0.5c-4.1,0-5.1,2.1-5.1,7.3c0,5.1,0.9,7.4,5,7.4c1.5,0,3.4-0.3,3.5-0.3v-4.9h-2.7V154.1z"/> <path class="st0" d="M459.1,144.7h5.6l4.9,19.3h-2.7l-1.3-4.3h-7.5l-1.2,4.4h-2.7L459.1,144.7z M458.7,157.2h6.4l-2.5-9.9h-1.4 L458.7,157.2z"/> <path class="st0" d="M479.9,161.7c2.6,0,4.2-0.9,4.2-3.6v-13.3h2.7v13.3c0,4.5-2.5,6.3-7,6.3c-4.4,0-6.9-1.8-6.9-6.3v-13.3h2.7 v13.3C475.8,160.8,477.4,161.7,479.9,161.7z"/> <path class="st0" d="M502.8,147.5c0,0-3.9-0.5-5.5-0.5c-2.5,0-3.8,0.8-3.8,2.7c0,2.1,1.1,2.5,4.4,3.3c3.9,1,5.5,2.1,5.5,5.5 c0,4.1-2.5,5.9-6.4,5.9c-2.1,0-5.9-0.6-5.9-0.6l0.3-2.5c0,0,3.6,0.5,5.6,0.5c2.5,0,3.7-0.9,3.7-3.2c0-1.8-1-2.4-4-3.1 c-4.1-1-6-2.1-6-5.7c0-3.7,2.5-5.4,6.5-5.4c2.2,0,5.8,0.6,5.8,0.6L502.8,147.5z"/> <path class="st0" d="M506.1,144.7h14v2.6h-5.6v16.8h-2.7v-16.8h-5.6V144.7z"/> <path class="st0" d="M531.5,157.1h-4.9v7h-2.7v-19.4h7.2c4.3,0,6.3,1.8,6.3,6.1c0,3-1.1,4.7-3.3,5.6l3.4,7.7h-3L531.5,157.1z M531.2,147.3h-4.5v7.3h4.6c2.6,0,3.5-1.5,3.5-3.7C534.7,148.4,533.6,147.3,531.2,147.3z"/> <path class="st0" d="M546.4,144.7h5.6l4.9,19.3h-2.7l-1.3-4.3h-7.5l-1.2,4.4h-2.7L546.4,144.7z M545.9,157.2h6.4l-2.5-9.9h-1.4 L545.9,157.2z"/> <path class="st0" d="M560.6,164.1v-19.4h2.7v16.8h8v2.6H560.6z"/> <path class="st0" d="M575.3,144.7h2.7v19.4h-2.7V144.7z"/> <path class="st0" d="M587.7,144.7h5.6l4.9,19.3h-2.7l-1.3-4.3h-7.5l-1.2,4.4h-2.7L587.7,144.7z M587.2,157.2h6.4l-2.5-9.9h-1.4 L587.2,157.2z"/> <path class="st0" d="M603,144.7h4.6l6.9,16.1h0.6v-16.1h2.7v19.4h-4.5l-7-16.1h-0.6v16.1H603V144.7z"/> <path class="st0" d="M635,147.5c0,0-3.9-0.5-5.5-0.5c-2.5,0-3.8,0.8-3.8,2.7c0,2.1,1.1,2.5,4.4,3.3c3.9,1,5.5,2.1,5.5,5.5 c0,4.1-2.5,5.9-6.4,5.9c-2.1,0-5.9-0.6-5.9-0.6l0.3-2.5c0,0,3.6,0.5,5.6,0.5c2.5,0,3.7-0.9,3.7-3.2c0-1.8-1-2.4-4-3.1 c-4.1-1-6-2.1-6-5.7c0-3.7,2.5-5.4,6.5-5.4c2.2,0,5.8,0.6,5.8,0.6L635,147.5z"/> </g> <g> <path class="st0" d="M747.7,88.3c6.3,0,10.4,4.8,10.4,10.6c0,5.8-4.1,10.6-10.4,10.6c-6.3,0-10.3-4.8-10.3-10.6 C737.4,93.1,741.3,88.3,747.7,88.3z M747.7,107.7c4.7,0,8.4-4,8.4-8.8c0-4.9-3.7-8.8-8.4-8.8c-4.8,0-8.3,3.9-8.3,8.8 C739.3,103.7,742.9,107.7,747.7,107.7z M747.7,100.6h-1.8v4.3h-2.7V92.9h4.3c3,0,4.6,1,4.6,3.7c0,1.9-0.5,3-1.8,3.7l2,4.7h-2.9 L747.7,100.6z M745.9,98.5h1.9c1.2,0,1.7-0.5,1.7-1.8c0-1.2-0.7-1.7-2-1.7h-1.6V98.5z"/> </g> </g> </svg>